<svg xmlns="http://www.w3.org/2000/svg" width="208.219" height="29.601"><g fill-rule="evenodd"><path d="M17.386 14.824L2.471 29.6H0l14.915-14.776L0 0h2.471l14.915 14.824" fill="#e41a28"/><path d="M30.7 11.575L42.366 0h2.471l-12.9 12.856.778.732L46.392 0h2.471L19.079 29.6h-2.471l14.915-14.822L16.608 0h2.471l5.4 5.4L29.922 0h2.471l-6.635 6.634.824.824L34.085 0h2.471l-8.739 8.693.824.824L38.249 0h2.471L29.876 10.752l.824.824" fill="#e41a28"/><path d="M21.55 14.824L6.635 29.6H4.164l14.869-14.776L4.164 0h2.471L21.55 14.824" fill="#e41a28"/><path d="M25.667 14.824L10.752 29.6H8.281l14.915-14.776L8.281 0h2.471l14.915 14.824" fill="#e41a28"/><path d="M29.831 14.824L14.916 29.6h-2.471L27.36 14.824 12.445 0h2.471l14.915 14.824" fill="#e41a28"/><path d="M197.376 9.287l-2.333 6.634h4.667l-2.333-6.634m-1.556-5.719h3.157l9.242 21.961h-4.436l-2.382-5.673h-7.824l-2.425 5.673h-4.438zm-32.759 21.961V3.568h5.49l5.9 16.791L180.4 3.568h5.584v21.961h-4.072V9.012l-5.719 16.516h-3.431l-5.678-16.516v16.517zM151.853 9.287l-2.333 6.634h4.664zm-1.556-5.719h3.157l9.242 21.961h-4.438l-2.374-5.673h-7.824l-2.425 5.673h-4.438zm-25.667 0h4.072v8.83h7.869v-8.83h4.026v21.961h-4.026v-9.242h-7.869v9.242h-4.072zm-19.581 11.209a7.8 7.8 0 00.778 3.111 7.676 7.676 0 001.83 2.333 7.467 7.467 0 002.379 1.418 6.5 6.5 0 002.333.5 7.011 7.011 0 003.66-1.007 7.277 7.277 0 002.7-2.7 7.771 7.771 0 001.1-3.752 7.662 7.662 0 00-.869-3.614 7.157 7.157 0 00-2.476-2.74 7.565 7.565 0 00-3.706-1.19 7.842 7.842 0 00-2.608.458 8.093 8.093 0 00-2.516 1.418 6.65 6.65 0 00-1.876 2.425 7.048 7.048 0 00-.729 3.34zm-4.026.137a11.484 11.484 0 011.693-6.36 10.8 10.8 0 014.346-4.026 11.719 11.719 0 015.444-1.372 11.277 11.277 0 014.392.915 12.019 12.019 0 013.66 2.562 12.506 12.506 0 012.471 3.706 11.227 11.227 0 01.869 4.392v.641a11.536 11.536 0 01-1.373 4.484 11.523 11.523 0 01-3.843 4.346 10.7 10.7 0 01-6.405 1.83 11.9 11.9 0 01-4.941-1.1 10.043 10.043 0 01-3.523-2.745 11.906 11.906 0 01-2.059-3.614 9.668 9.668 0 01-.731-3.659zM89.173 3.568h4.072v9.562l6.863-9.562h4.85L96.677 14.32l8.281 11.209h-4.85l-6.863-9.654v9.654h-4.072zM69.591 14.777a7.8 7.8 0 00.778 3.111 7.677 7.677 0 001.83 2.333 7.468 7.468 0 002.379 1.418 6.5 6.5 0 002.333.5 6.9 6.9 0 003.66-1.007 7.277 7.277 0 002.7-2.7 7.771 7.771 0 001.1-3.752 7.662 7.662 0 00-.869-3.614 7.158 7.158 0 00-2.471-2.745 7.566 7.566 0 00-3.706-1.19 7.842 7.842 0 00-2.608.458 8.093 8.093 0 00-2.516 1.418 6.65 6.65 0 00-1.876 2.425 7.048 7.048 0 00-.734 3.345zm-3.98.137a11.483 11.483 0 011.693-6.36 10.8 10.8 0 014.346-4.026 11.719 11.719 0 015.445-1.372 11.278 11.278 0 014.392.915 12.019 12.019 0 013.66 2.562 12.506 12.506 0 012.471 3.706 11.227 11.227 0 01.869 4.392v.641a11.538 11.538 0 01-1.373 4.484 11.523 11.523 0 01-3.843 4.346 10.7 10.7 0 01-6.405 1.83 11.9 11.9 0 01-4.941-1.1 10.042 10.042 0 01-3.523-2.745 11.906 11.906 0 01-2.059-3.614 9.668 9.668 0 01-.732-3.659zM50.284 3.568h4.484l4.758 10.02 4.85-10.02h4.438l-7.23 13.863v8.1h-4.072v-8.1z" fill="#fff"/></g></svg>